<svg xmlns="http://www.w3.org/2000/svg" xmlns:xlink="http://www.w3.org/1999/xlink" width="60" height="80.929" viewBox="0 0 60 80.929"><defs><style>.a,.h{fill:none;}.b{clip-path:url(#a);}.c{fill:#ff9901;}.d{fill:#fff;}.d,.e,.f,.h{stroke:#707070;}.e{fill:#f1f2f3;}.f,.g{fill:#f7f7f7;}.g{font-size:4px;font-family:HelveticaNeue-Bold, Helvetica Neue;font-weight:700;}.i,.j{stroke:none;}.j{fill:#707070;}</style><clipPath id="a"><rect class="a" width="60" height="80.929"/></clipPath></defs><g class="b"><g class="c"><path class="i" d="M 59.5 6.469178199768066 L 0.5 6.469178199768066 L 0.5 0.4999983906745911 L 35.88542175292969 0.4999983906745911 L 59.5 0.4999983906745911 L 59.5 6.469178199768066 Z"/><path class="j" d="M 1 0.9999985694885254 L 1 5.969178199768066 L 59 5.969178199768066 L 59 0.9999985694885254 L 35.88542175292969 0.9999985694885254 L 1 0.9999985694885254 M 0 -1.430511474609375e-06 L 35.88542175292969 -1.430511474609375e-06 L 60 -1.430511474609375e-06 L 60 6.969178199768066 L 0 6.969178199768066 L 0 -1.430511474609375e-06 Z"/></g><g class="d" transform="translate(0 5.929)"><rect class="i" width="60" height="75"/><rect class="a" x="0.5" y="0.5" width="59" height="74"/></g><g class="e" transform="translate(6 30.929)"><rect class="i" width="48" height="45" rx="2"/><rect class="a" x="0.5" y="0.5" width="47" height="44" rx="1.5"/></g><g class="f" transform="translate(9 33.929)"><rect class="i" width="42" height="25"/><rect class="a" x="0.5" y="0.5" width="41" height="24"/></g><g class="f" transform="translate(14 61.929)"><circle class="i" cx="1.5" cy="1.5" r="1.5"/><circle class="a" cx="1.5" cy="1.5" r="1"/></g><g class="f" transform="translate(24 61.929)"><circle class="i" cx="1.5" cy="1.5" r="1.5"/><circle class="a" cx="1.5" cy="1.5" r="1"/></g><g class="f" transform="translate(33 61.929)"><circle class="i" cx="1.5" cy="1.5" r="1.5"/><circle class="a" cx="1.5" cy="1.5" r="1"/></g><g class="f" transform="translate(42 61.929)"><circle class="i" cx="1.5" cy="1.5" r="1.5"/><circle class="a" cx="1.5" cy="1.5" r="1"/></g><text class="g" transform="translate(14 65.929)"><tspan x="0.13" y="4">A</tspan></text><text class="g" transform="translate(24 65.929)"><tspan x="0.092" y="4">B</tspan></text><text class="g" transform="translate(33 65.929)"><tspan x="0.018" y="4">C</tspan></text><text class="g" transform="translate(42 65.929)"><tspan x="0.018" y="4">D</tspan></text><g class="e" transform="translate(6 10.929)"><rect class="i" width="48" height="17" rx="2"/><rect class="a" x="0.5" y="0.5" width="47" height="16" rx="1.5"/></g><line class="h" x2="20" transform="translate(21.5 16.429)"/><line class="h" x2="17" transform="translate(21.5 19.429)"/><line class="h" x2="12" transform="translate(21.5 22.429)"/><g class="f" transform="translate(49 12.929)"><circle class="i" cx="1.5" cy="1.5" r="1.5"/><circle class="a" cx="1.5" cy="1.5" r="1"/></g><g class="c" transform="translate(49 1.929)"><path class="i" d="M 8 2.5 L 1 2.5 C 0.7243000268936157 2.5 0.5 2.275700092315674 0.5 2 L 0.5 1 C 0.5 0.7243000268936157 0.7243000268936157 0.5 1 0.5 L 8 0.5 C 8.275699615478516 0.5 8.5 0.7243000268936157 8.5 1 L 8.5 2 C 8.5 2.275700092315674 8.275699615478516 2.5 8 2.5 Z"/><path class="j" d="M 1 1 L 1 2 L 8 2 L 8 1 L 1 1 M 1 0 L 8 0 C 8.552289962768555 0 9 0.4477200508117676 9 1 L 9 2 C 9 2.552279949188232 8.552289962768555 3 8 3 L 1 3 C 0.4477100372314453 3 0 2.552279949188232 0 2 L 0 1 C 0 0.4477200508117676 0.4477100372314453 0 1 0 Z"/></g><g class="c" transform="translate(40 1.929)"><path class="i" d="M 7 2.5 L 1 2.5 C 0.7243000268936157 2.5 0.5 2.275700092315674 0.5 2 L 0.5 1 C 0.5 0.7243000268936157 0.7243000268936157 0.5 1 0.5 L 7 0.5 C 7.275700092315674 0.5 7.5 0.7243000268936157 7.5 1 L 7.5 2 C 7.5 2.275700092315674 7.275700092315674 2.5 7 2.5 Z"/><path class="j" d="M 1 1 L 1 2 L 7 2 L 7 1 L 1 1 M 1 0 L 7 0 C 7.552279949188232 0 8 0.4477200508117676 8 1 L 8 2 C 8 2.552279949188232 7.552279949188232 3 7 3 L 1 3 C 0.4477200508117676 3 0 2.552279949188232 0 2 L 0 1 C 0 0.4477200508117676 0.4477200508117676 0 1 0 Z"/></g><line class="h" x2="12" transform="translate(2.5 3.429)"/></g></svg>