<svg xmlns="http://www.w3.org/2000/svg" xmlns:xlink="http://www.w3.org/1999/xlink" width="60" height="80.929" viewBox="0 0 60 80.929"><defs><clipPath id="a"><rect width="60" height="80.929" fill="none"/></clipPath></defs><g clip-path="url(#a)"><g fill="#ff9901"><path d="M 59.5 6.469178199768066 L 0.5 6.469178199768066 L 0.5 0.4999983906745911 L 35.88542175292969 0.4999983906745911 L 59.5 0.4999983906745911 L 59.5 6.469178199768066 Z" stroke="none"/><path d="M 1 0.9999985694885254 L 1 5.969178199768066 L 59 5.969178199768066 L 59 0.9999985694885254 L 35.88542175292969 0.9999985694885254 L 1 0.9999985694885254 M 0 -1.430511474609375e-06 L 35.88542175292969 -1.430511474609375e-06 L 60 -1.430511474609375e-06 L 60 6.969178199768066 L 0 6.969178199768066 L 0 -1.430511474609375e-06 Z" stroke="none" fill="#152939"/></g><g transform="translate(0 5.929)" fill="#fff" stroke="#152939" stroke-width="1"><rect width="60" height="75" stroke="none"/><rect x="0.5" y="0.5" width="59" height="74" fill="none"/></g><g transform="translate(6 30.929)" fill="#f1f2f3" stroke="#152939" stroke-width="1"><rect width="48" height="45" rx="2" stroke="none"/><rect x="0.5" y="0.5" width="47" height="44" rx="1.5" fill="none"/></g><g transform="translate(9 33.929)" fill="#f7f7f7" stroke="#152939" stroke-width="1"><rect width="42" height="25" stroke="none"/><rect x="0.5" y="0.5" width="41" height="24" fill="none"/></g><g transform="translate(14 61.929)" fill="#f7f7f7" stroke="#152939" stroke-width="1"><circle cx="1.5" cy="1.5" r="1.5" stroke="none"/><circle cx="1.5" cy="1.5" r="1" fill="none"/></g><g transform="translate(24 61.929)" fill="#f7f7f7" stroke="#152939" stroke-width="1"><circle cx="1.5" cy="1.5" r="1.5" stroke="none"/><circle cx="1.5" cy="1.5" r="1" fill="none"/></g><g transform="translate(33 61.929)" fill="#f7f7f7" stroke="#152939" stroke-width="1"><circle cx="1.5" cy="1.5" r="1.5" stroke="none"/><circle cx="1.5" cy="1.5" r="1" fill="none"/></g><g transform="translate(42 61.929)" fill="#f7f7f7" stroke="#152939" stroke-width="1"><circle cx="1.5" cy="1.5" r="1.5" stroke="none"/><circle cx="1.5" cy="1.5" r="1" fill="none"/></g><text transform="translate(14 65.929)" fill="#f7f7f7" font-size="4" font-family="HelveticaNeue-Bold, Helvetica Neue" font-weight="700"><tspan x="0.13" y="4">A</tspan></text><text transform="translate(24 65.929)" fill="#f7f7f7" font-size="4" font-family="HelveticaNeue-Bold, Helvetica Neue" font-weight="700"><tspan x="0.092" y="4">B</tspan></text><text transform="translate(33 65.929)" fill="#f7f7f7" font-size="4" font-family="HelveticaNeue-Bold, Helvetica Neue" font-weight="700"><tspan x="0.018" y="4">C</tspan></text><text transform="translate(42 65.929)" fill="#f7f7f7" font-size="4" font-family="HelveticaNeue-Bold, Helvetica Neue" font-weight="700"><tspan x="0.018" y="4">D</tspan></text><g transform="translate(6 10.929)" fill="#f1f2f3" stroke="#152939" stroke-width="1"><rect width="48" height="17" rx="2" stroke="none"/><rect x="0.5" y="0.5" width="47" height="16" rx="1.5" fill="none"/></g><line x2="20" transform="translate(21.5 16.429)" fill="none" stroke="#152939" stroke-width="1"/><line x2="17" transform="translate(21.5 19.429)" fill="none" stroke="#152939" stroke-width="1"/><line x2="12" transform="translate(21.5 22.429)" fill="none" stroke="#152939" stroke-width="1"/><g transform="translate(49 12.929)" fill="#f7f7f7" stroke="#152939" stroke-width="1"><circle cx="1.5" cy="1.5" r="1.5" stroke="none"/><circle cx="1.5" cy="1.5" r="1" fill="none"/></g><g transform="translate(49 1.929)" fill="#ff9901"><path d="M 8 2.5 L 1 2.5 C 0.7243000268936157 2.5 0.5 2.275700092315674 0.5 2 L 0.5 1 C 0.5 0.7243000268936157 0.7243000268936157 0.5 1 0.5 L 8 0.5 C 8.275699615478516 0.5 8.5 0.7243000268936157 8.5 1 L 8.5 2 C 8.5 2.275700092315674 8.275699615478516 2.5 8 2.5 Z" stroke="none"/><path d="M 1 1 L 1 2 L 8 2 L 8 1 L 1 1 M 1 0 L 8 0 C 8.552289962768555 0 9 0.4477200508117676 9 1 L 9 2 C 9 2.552279949188232 8.552289962768555 3 8 3 L 1 3 C 0.4477100372314453 3 0 2.552279949188232 0 2 L 0 1 C 0 0.4477200508117676 0.4477100372314453 0 1 0 Z" stroke="none" fill="#152939"/></g><g transform="translate(40 1.929)" fill="#ff9901"><path d="M 7 2.5 L 1 2.5 C 0.7243000268936157 2.5 0.5 2.275700092315674 0.5 2 L 0.5 1 C 0.5 0.7243000268936157 0.7243000268936157 0.5 1 0.5 L 7 0.5 C 7.275700092315674 0.5 7.5 0.7243000268936157 7.5 1 L 7.5 2 C 7.5 2.275700092315674 7.275700092315674 2.5 7 2.5 Z" stroke="none"/><path d="M 1 1 L 1 2 L 7 2 L 7 1 L 1 1 M 1 0 L 7 0 C 7.552279949188232 0 8 0.4477200508117676 8 1 L 8 2 C 8 2.552279949188232 7.552279949188232 3 7 3 L 1 3 C 0.4477200508117676 3 0 2.552279949188232 0 2 L 0 1 C 0 0.4477200508117676 0.4477200508117676 0 1 0 Z" stroke="none" fill="#152939"/></g><line x2="12" transform="translate(2.5 3.429)" fill="none" stroke="#152939" stroke-width="1"/></g></svg>